<svg xmlns="http://www.w3.org/2000/svg" viewBox="0 0 64 64" role="img" aria-label="WhatsApp">
  <circle cx="32" cy="32" r="32" fill="#25d366"/>
  <path fill="#fff" d="M44.5 19.4A17.2 17.2 0 0 0 17.4 40l-2 9.2 9.4-2a17.1 17.1 0 0 0 8.2 2.1h.1A17.2 17.2 0 0 0 44.5 19.4Zm-11.4 26.9H33a14.2 14.2 0 0 1-7.2-2l-.5-.3-5.6 1.2 1.2-5.4-.4-.6a14.1 14.1 0 1 1 12.6 7.1Zm7.8-10.6c-.4-.2-2.5-1.2-2.9-1.4-.4-.1-.7-.2-1 .2-.3.4-1.1 1.4-1.4 1.7-.2.3-.5.3-.9.1-.4-.2-1.8-.7-3.5-2.2a13.2 13.2 0 0 1-2.4-3c-.2-.4 0-.6.2-.8l.6-.7.4-.7c.1-.3.1-.5 0-.8l-1.3-3.1c-.3-.8-.7-.7-1-.7h-.8c-.3 0-.8.1-1.2.5-.4.4-1.6 1.6-1.6 3.8s1.7 4.4 1.9 4.7c.2.3 3.3 5 7.9 7 1.1.5 2 .8 2.7 1 1.1.3 2.1.3 2.9.2.9-.1 2.5-1 2.9-2 .4-1 .4-1.8.3-2-.1-.2-.4-.3-.8-.5Z"/>
</svg>